<?xml version="1.0" encoding="utf-8"?>
<!-- Generator: Adobe Illustrator 18.1.1, SVG Export Plug-In . SVG Version: 6.00 Build 0)  -->
<svg version="1.1" id="Layer_1" xmlns="http://www.w3.org/2000/svg" xmlns:xlink="http://www.w3.org/1999/xlink" x="0px" y="0px"
	 viewBox="0 0 417 379" enable-background="new 0 0 417 379" xml:space="preserve">
<g>
	<path d="M7.7,372c0-122,0-244,0-366C142,6,276.2,6,410.5,6c0,122,0,244,0,366c-1.4,0-2.7,0.1-4.1,0.1c-131.3,0-262.5,0-393.8,0
		C11,372.1,9.4,372,7.7,372z M20.8,18.8c0,113.7,0,227.1,0,340.5c125.7,0,251.2,0,376.7,0c0-113.7,0-227.1,0-340.5
		C271.9,18.8,146.5,18.8,20.8,18.8z"/>
	<path d="M7.7,372c1.6,0,3.2,0.1,4.9,0.1c131.3,0,262.5,0,393.8,0c1.4,0,2.7-0.1,4.1-0.1c-0.1,0.3-0.2,0.7-0.4,0.7c-1,0.1-2,0-3,0
		c-132,0-264,0-396,0C10,372.7,8.9,372.3,7.7,372z"/>
	<path d="M112.1,55.5c14.5,0,28.7,0,43.3,0c0,27.6,0,55.1,0,83.8c1.6-1.3,2.5-2,3.3-2.8c28-25.9,56-51.7,83.9-77.6
		c2.8-2.6,5.5-3.7,9.2-3.6c14.4,0.2,28.7,0.1,43.1,0.1c1.2,0,2.4,0,3.6,0c-26,26-52,52-78.2,78.2c29.1,36.9,57.7,73.1,86.8,110.1
		c-2.1,0-3.3,0-4.4,0c-14.9,0-29.7-0.1-44.6,0.1c-3.2,0-5.2-0.9-7.2-3.4c-20.2-24.9-40.6-49.8-60.9-74.6c-0.6-0.8-1.3-1.5-2.2-2.4
		c-7,6.6-13.8,13.2-20.7,19.7c-1.6,1.6-3,3.4-4.9,4.6c-6,3.8-7,9.3-6.8,16c0.5,11.9,0.1,23.7,0.1,35.6c0,1.3,0,2.7,0,4.2
		c-14.7,0-29,0-43.5,0C112.1,180.8,112.1,118.4,112.1,55.5z"/>
	<path d="M100.4,243.5c-14.7,0-28.9,0-43.5,0c0-46.1,0-92.1,0-138.3c14.4,0,28.9,0,43.5,0C100.4,151.3,100.4,197.2,100.4,243.5z"/>
	<path d="M318.4,105.1c14.5,0,28.7,0,43.2,0c0,46.1,0,92.1,0,138.3c-14.4,0-28.7,0-43.2,0C318.4,197.3,318.4,151.4,318.4,105.1z"/>
	<path d="M103.4,312.2c-2.7,0-4.8,0-7.3,0c0-9,0-17.9,0-26.7c0-2.1,0-4.3-0.3-6.3c-1.2-7.7-5.1-11.6-12.1-12.7
		c-7.4-1.1-14.8,2.3-17.5,8.7c-1.3,2.9-1.9,6.2-2,9.4c-0.3,9.1-0.1,18.2-0.1,27.6c-2.5,0-4.8,0-7.2,0c0-17.3,0-34.4,0-51.7
		c2.2,0,4.3,0,6.7,0c0.1,2.5,0.2,4.9,0.3,7.6c11.6-12.4,31.2-10.1,37.4,2c5.9-8.3,14.2-11.1,24-9.9c9.5,1.1,16.1,6.7,16.7,16.3
		c0.8,11.8,0.2,23.7,0.2,35.8c-2,0-4.2,0-6.7,0c0-6.3,0-12.4,0-18.4c0-4.2,0.1-8.5-0.1-12.7c-0.4-8.4-4.4-13.2-11.9-14.4
		c-8.2-1.3-15.9,2.7-18.5,10c-1,2.8-1.3,5.9-1.4,8.8C103.3,294.2,103.4,303,103.4,312.2z"/>
	<path d="M100.5,55.6c0.2,23.3-21,42.3-43.6,39.3c0-13,0-26,0-39.3C71.4,55.6,85.8,55.6,100.5,55.6z"/>
	<path d="M361.5,55.7c1.9,17.8-15.8,42-43,39.4c0-13,0-26,0-39.4C332.7,55.7,347,55.7,361.5,55.7z"/>
	<path d="M250.3,269.1c0-7.4,0-14,0-20.9c2.5,0,4.6,0,7,0c0,21.3,0,42.4,0,63.9c-2,0-4.1,0-6.6,0c0-2.8,0-5.5,0-9.6
		c-6.5,8.6-14.4,11.1-23.5,10.1c-6.4-0.7-11.9-3.4-16.3-8.4c-8.9-10.2-8.3-27.9,1.1-37.4C219.7,259.3,237.8,255.2,250.3,269.1z
		 M231.4,266.2c-11.2-0.1-19.6,8.5-19.5,20.2c0,11.4,8,19.8,18.9,20c11.4,0.2,19.5-8,19.6-20C250.4,274.7,242.6,266.3,231.4,266.2z"
		/>
	<path d="M199,288.7c-14.7,0-28.9,0-43.3,0c0.8,7.5,4.4,12.9,11,15.7c9.2,3.8,17.8,2.5,25.5-4.7c1.3,1.5,2.5,2.9,3.9,4.4
		c-3.8,4.8-8.8,7.1-14.6,8.2c-15.4,3-29.2-5.6-32.3-20.1c-2.4-11.2,1.8-22.4,10.7-28.4c8.4-5.6,20.8-5.6,29,0.4
		C196.8,270.2,199.7,278.4,199,288.7z M192.1,282.9c-0.7-9.9-8.1-16.7-17.9-16.7c-10.1,0-17.4,6.5-18.2,16.7
		C167.9,282.9,179.8,282.9,192.1,282.9z"/>
	<path d="M361.7,312.2c-2.1,0-4,0-6.4,0c-0.1-2.1-0.2-4.2-0.3-7.1c-5.6,6.8-12.5,8.1-20.2,7.7c-11.6-0.6-18.8-9.3-15.9-19.4
		c1.7-6.1,6.3-8.9,12.1-9.8c4.4-0.7,8.9-0.6,13.4-0.8c3.3-0.1,6.7,0,10,0c1.7-9.8-3.2-16-12.6-16.5c-6.9-0.4-13,1.6-18.9,6
		c-1.1-1.7-2.1-3.3-3.4-5.4c2.2-1.3,4.2-2.8,6.4-3.8c7.7-3.4,15.7-4.2,23.8-1.9c7,1.9,11.5,6.8,11.8,13.9
		C362.1,287.2,361.7,299.6,361.7,312.2z M354.6,288.8c-7.4,0-14.5-0.3-21.6,0.1c-4.3,0.3-6.9,3.4-7.4,7.2c-0.6,4.1,1.2,7.7,5.2,9.4
		c6.4,2.6,12.7,2.2,18.5-1.7C354.8,300.1,355.7,294.7,354.6,288.8z"/>
	<path d="M262.7,260.4c0.9-0.1,1.3-0.1,1.7-0.2c4.4-0.9,6.5,1.1,8.2,5.2c4.7,11.4,9.9,22.6,14.9,33.9c0.6,1.3,1.2,2.6,2.2,4.6
		c0.8-1.8,1.4-3,1.9-4.2c5.1-11.4,10.1-22.8,15.2-34.2c2.4-5.5,2.5-5.5,9.2-5.1c-0.4,1.1-0.7,2.1-1.1,3c-8.3,18.6-16.5,37.1-25,55.6
		c-1.4,3-3.2,6-5.5,8.4c-6,6.3-18.1,6-24.2-0.5c0.9-1.5,1.9-3,2.6-4.2c3.7,1,7.1,2.7,10.4,2.7c2.5,0,5.6-1.6,7.3-3.5
		c4.2-4.8,5.9-9.8,2.5-16.5c-6.8-13.6-12.6-27.7-18.8-41.6C263.7,262.7,263.3,261.7,262.7,260.4z"/>
</g>
</svg>
